<svg xmlns="http://www.w3.org/2000/svg" width="206" height="225.656" viewBox="0 0 206 225.656"><defs><style>.a{fill:#515f75;}.b{fill:#3b485b;}.c{fill:#f4af9d;}.d{fill:#f9c2af;}.e{fill:#f2f2f2;}.f{fill:#f74866;}.g{fill:#e6e6e6;}.h{fill:#ea9e8f;}.i{fill:#293544;}.j{fill:#e06e86;}</style></defs><path class="a" d="M353.984,459.456l-10.192,10.192H297l33.584-33.093L344.625,450.1Zm0,0" transform="translate(-166.102 -244.15)"/><path class="b" d="M389.606,476.638,379.414,486.83H360.7l19.552-19.552Zm0,0" transform="translate(-201.725 -261.333)"/><path class="c" d="M400.77,436.559H373.192V469.65H400.77a5.511,5.511,0,0,0,5.513-5.513V442.072A5.511,5.511,0,0,0,400.77,436.559Zm0,0" transform="translate(-208.713 -244.153)"/><path class="d" d="M400.77,436.559H373.192v19.754H400.77a5.507,5.507,0,0,0,5.513-5.511v-8.73A5.511,5.511,0,0,0,400.77,436.559Zm0,0" transform="translate(-208.713 -244.153)"/><path class="c" d="M414.715,400.8v15.837a12.839,12.839,0,0,1-12.838,12.845H373.2V371.892a7.443,7.443,0,0,1,14.887,0v16.063h13.8A12.838,12.838,0,0,1,414.715,400.8Zm0,0" transform="translate(-208.715 -203.824)"/><path class="d" d="M438.325,430.723V446.56a11.524,11.524,0,1,1-22.915,0V430.723a11.524,11.524,0,1,1,22.915,0Zm0,0" transform="translate(-232.325 -233.749)"/><path class="b" d="M136.544,418.317v28.772H10.394V418.317a22.38,22.38,0,0,1,22.378-22.383h81.389a22.381,22.381,0,0,1,22.383,22.383Zm0,0" transform="translate(-5.813 -221.432)"/><path class="a" d="M146.275,418.317v28.772H27.793V418.317a22.381,22.381,0,0,1,22.383-22.383h73.716a22.381,22.381,0,0,1,22.383,22.383Zm0,0" transform="translate(-15.544 -221.432)"/><path class="b" d="M60.878,395.941,59.52,430.36l14.468,3.619L61,446.968h79.888l-12.99-12.99,14.468-3.619-1.358-34.419" transform="translate(-33.287 -221.436)"/><path class="e" d="M146.092,395.941,131.519,447.09H105.5L90.93,395.941" transform="translate(-50.854 -221.436)"/><path class="f" d="M113.063,420.355l17.827,22.314,17.648-22.23-17.648-3.3Z" transform="translate(-63.232 -233.293)"/><path class="g" d="M99.118,424.677l19.394-19.392L137.9,424.677l8.188-28.736H90.93Zm0,0" transform="translate(-50.854 -221.437)"/><path class="d" d="M149.051,330.712v28.741l-16.579,9.341-5.124-2.885-11.457-6.456V330.695l11.457.005Zm0,0" transform="translate(-64.814 -184.947)"/><path class="f" d="M124.2,491.34l12.919-16.278,13.007,16.278" transform="translate(-69.46 -265.686)"/><path class="h" d="M127.348,330.7l-11.457-.005v28.756l11.457,6.458v-13.3c1.694.167,3.409.262,5.146.262a51.952,51.952,0,0,0,16.559-2.691v-19.47Zm0,0" transform="translate(-64.814 -184.947)"/><path class="h" d="M15.632,226.569C7,226.569,0,220.3,0,212.575s7-13.993,15.632-13.993h104.1c8.634,0,15.632,6.265,15.632,13.993s-7,13.993-15.632,13.993" transform="translate(0 -111.06)"/><path class="d" d="M139.566,129.09v52.052a52.049,52.049,0,1,1-104.1,0V129.09Zm0,0" transform="translate(-19.836 -72.196)"/><path class="h" d="M87.147,233.189a52.043,52.043,0,0,1-51.678-52.046v-52.05H58.9v52.05c0,14.374,3.2,27.382,8.381,36.8,5.1,9.273,12.108,15.061,19.864,15.241Zm0,0" transform="translate(-19.837 -72.198)"/><path class="i" d="M191.194,227.964a3.45,3.45,0,0,1-3.452-3.452V217.28a3.452,3.452,0,1,1,6.9,0v7.233A3.451,3.451,0,0,1,191.194,227.964Zm0,0" transform="translate(-104.998 -119.587)"/><path class="i" d="M107.171,227.964a3.451,3.451,0,0,1-3.452-3.452V217.28a3.452,3.452,0,0,1,6.9,0v7.233A3.45,3.45,0,0,1,107.171,227.964Zm0,0" transform="translate(-58.006 -119.587)"/><path class="h" d="M139.566,129.09v13.045a52.7,52.7,0,0,1-12.9,6.623c-18.862,6.794-37.122,4.505-50.032.907,0,0,0,0,0-.005A87.564,87.564,0,0,1,58.192,142.4S53.445,165.24,35.468,165.24V129.09Zm0,0" transform="translate(-19.836 -72.196)"/><path class="a" d="M111.953,71.039c-18.86,6.8-37.118,4.507-50.032.909a.005.005,0,0,1-.005-.005,87.691,87.691,0,0,1-18.433-7.267S38.734,87.52,20.755,87.52c0,0-11.958-21.157-11.583-40.732A18.079,18.079,0,0,1,32.652,29.874,33.139,33.139,0,0,1,65.783,8.419c2.269.141,4.554.322,6.845.529.439.038.881.077,1.32.119l.136.012c23.788,2.235,47.884,6.585,62.04-9.078,0,0,23.4,53.9-24.172,71.039Zm0,0" transform="translate(-5.125 0)"/><path class="b" d="M65.783,19.023c2.271.141,4.554.322,6.845.529-20.988-.885-37.664,45.339-10.712,63a87.692,87.692,0,0,1-18.433-7.267S38.735,98.125,20.756,98.125c0,0-11.958-21.157-11.583-40.732A18.079,18.079,0,0,1,32.652,40.478,33.143,33.143,0,0,1,65.783,19.023Zm0,0" transform="translate(-5.125 -10.605)"/><path class="c" d="M156.3,20.588c-.05-.009-.095-.012-.145-.017l.136.014Zm0,0" transform="translate(-87.333 -11.504)"/><path class="j" d="M132.979,293.2a21.442,21.442,0,0,1-15.21-6.291,3.452,3.452,0,1,1,4.882-4.881,14.622,14.622,0,0,0,20.656,0,3.452,3.452,0,1,1,4.882,4.881A21.445,21.445,0,0,1,132.979,293.2Zm0,0" transform="translate(-65.298 -157.164)"/></svg>